{"title":"The Ellen DeGeneres Show 2015 10 02","uid":12520937,"size":352195313,"categoryP":"video","categoryS":"tv_shows","magnet":"?xt=urn:btih:1c3454a748664356c09ff61d298184f90924fedb&amp;dn=The+Ellen+DeGeneres+Show+2015+10+02&amp;tr=udp%3A%2F%2Ftracker.leechers-paradise.org%3A6969&amp;tr=udp%3A%2F%2Fzer0day.ch%3A1337&amp;tr=udp%3A%2F%2Fopen.demonii.com%3A1337&amp;tr=udp%3A%2F%2Ftracker.coppersurfer.tk%3A6969&amp;tr=udp%3A%2F%2Fexodus.desync.com%3A6969","seeders":0,"leechers":0,"uploader":"Joker__TPB","files":3,"time":1443873016,"description":"===================================================================================\r\nA mix of celebrity interviews| musical performers| audience participation games| and segments spotlighting real people with extraordinary stories and talents| hosted\r\nby comedienne Ellen DeGeneres.\r\n===================================================================================\r\nVideo\r\nID                                       : 1\r\nFormat                                   : AVC\r\nFormat/Info                              : Advanced Video Codec\r\nFormat profile                           :   \r\nFormat settings, CABAC                   : Yes\r\nFormat settings, ReFrames                : 5 frames\r\nCodec ID                                 : avc1\r\nCodec ID/Info                            : Advanced Video Coding\r\nDuration                                 : 40mn 49s\r\nBit rate                                 : 997 Kbps\r\nMaximum bit rate                         : 3 825 Kbps\r\nWidth                                    : 720 pixels\r\nHeight                                   : 404 pixels\r\nDisplay aspect ratio                     : 16:9\r\nFrame rate mode                          : Constant\r\nFrame rate                               : 29.970 fps\r\nColor space                              : YUV\r\nChroma subsampling                       : 4:2:0\r\nBit depth                                : 8 bits\r\nScan type                                : Progressive\r\nBits/(Pixel*Frame)                       : 0.114\r\nStream size                              : 291 MiB (87%)\r\nWriting library                          : x264 core 148 r2597 e86f3a1\r\nEncoding settings                        : cabac=1 / ref=5 / deblock=1:0:0 / analyse=0x3:0x133 / me=umh / subme=8 / psy=1 / psy_rd=1.00:0.00 / mixed_ref=1 / me_range=16 / chroma_me=1 / trellis=1 / 8x8dct=1 / cqm=0 / deadzone=21,11 / fast_pskip=1 / chroma_qp_offset=-2 / threads=18 / lookahead_threads=3 / sliced_threads=0 / nr=0 / decimate=1 / interlaced=0 / bluray_compat=0 / constrained_intra=0 / bframes=3 / b_pyramid=2 / b_adapt=2 / b_bias=0 / direct=3 / weightb=1 / open_gop=0 / weightp=2 / keyint=300 / keyint_min=29 / scenecut=40 / intra_refresh=0 / rc_lookahead=50 / rc=crf / mbtree=1 / crf=19.0 / qcomp=0.60 / qpmin=0 / qpmax=69 / qpstep=4 / ip_ratio=1.40 / aq=1:1.00\r\nEncoded date                             : UTC 2015-10-03 07:00:52\r\nTagged date                              : UTC 2015-10-02 07:55:03\r\nColor range                              : Limited\r\nMatrix coefficients                      : BT.709\r\n\r\nAudio\r\nID                                       : 2\r\nFormat                                   : AAC\r\nFormat/Info                              : Advanced Audio Codec\r\nFormat profile                           : LC\r\nCodec ID                                 : 40\r\nDuration                                 : 40mn 49s\r\nBit rate mode                            : Variable\r\nBit rate                                 : 149 Kbps\r\nMaximum bit rate                         : 168 Kbps\r\nChannel(s)                               : 2 channels\r\nChannel positions                        : Front: L R\r\nSampling rate                            : 48.0 KHz\r\nCompression mode                         : Lossy\r\nStream size                              : 43.6 MiB (13%)\r\nEncoded date                             : UTC 2015-10-02 07:55:00\r\nTagged date                              : UTC 2015-10-02 07:55:03\r\n\r\n===================================================================================","torrent":{"xt":"urn:btih:1c3454a748664356c09ff61d298184f90924fedb","amp;dn":"The+Ellen+DeGeneres+Show+2015+10+02","amp;tr":["udp%3A%2F%2Ftracker.leechers-paradise.org%3A6969","udp%3A%2F%2Fzer0day.ch%3A1337","udp%3A%2F%2Fopen.demonii.com%3A1337","udp%3A%2F%2Ftracker.coppersurfer.tk%3A6969","udp%3A%2F%2Fexodus.desync.com%3A6969"],"infoHash":"1c3454a748664356c09ff61d298184f90924fedb","infoHashBuffer":{"type":"Buffer","data":[28,52,84,167,72,102,67,86,192,159,246,29,41,129,132,249,9,36,254,219]},"announce":[],"urlList":[]}}